# xmcd CD database file
#
# Track frame offsets:
#	150
#	29315
#	59968
#	90205
#	101652
#	130067
#	163609
#	199398
#	228841
#	251798
#
# Disc length: 3735 seconds
#
# Revision: 0
# Processed by: cddbd v1.5.2PL0 Copyright (c) Steve Scherf et al.
# Submitted via: CDex 1.51
#
DISCID=850e950a
DTITLE=オムニバス - 静かな夜のカフェ - 音のサプリメント 24
DYEAR=2009
DGENRE=Jazz
TTITLE0=Over The Rainbow
TTITLE1=Turning Point
TTITLE2=Se Eu Quiser Falar Com Deus
TTITLE3=Moon River
TTITLE4=Be
TTITLE5=B Sharp in C Sharp
TTITLE6=Son of Africa
TTITLE7=Dog and Uncle
TTITLE8=Willow Weep For Me
TTITLE9=Solheverv
EXTD=YEAR: 2009
EXTT0=
EXTT1=
EXTT2=
EXTT3=
EXTT4=
EXTT5=
EXTT6=
EXTT7=
EXTT8=
EXTT9=
PLAYORDER=
